<svg width="37" height="36" viewBox="0 0 37 36" fill="none" xmlns="http://www.w3.org/2000/svg">
<path d="M6.1582 16.9033H5.1582V18.9033H6.1582V16.9033ZM32.1582 18.9033C32.7105 18.9033 33.1582 18.4556 33.1582 17.9033C33.1582 17.351 32.7105 16.9033 32.1582 16.9033V18.9033ZM23.1582 7.90332V6.90332H21.1582V7.90332H23.1582ZM31.5789 18.6807C32.0637 18.9452 32.6711 18.7665 32.9356 18.2817C33.2001 17.7968 33.0214 17.1894 32.5365 16.9249L31.5789 18.6807ZM21.1581 27.8028L21.1581 28.8028L23.1581 28.8028L23.1581 27.8028L21.1581 27.8028ZM6.1582 18.9033H32.0576V16.9033H6.1582V18.9033ZM32.0576 18.9033H32.1582V16.9033H32.0576V18.9033ZM21.1582 7.90332C21.1582 9.37573 21.9535 10.7821 22.9298 11.9802C23.926 13.2029 25.2298 14.3531 26.4965 15.3319C27.7691 16.3152 29.0366 17.1503 29.9832 17.7383C30.4575 18.0329 30.8534 18.2668 31.132 18.4278C31.2713 18.5084 31.3815 18.5707 31.4575 18.6134C31.4956 18.6347 31.5251 18.6511 31.5455 18.6624C31.5557 18.668 31.5637 18.6724 31.5693 18.6755C31.572 18.677 31.5742 18.6782 31.5758 18.6791C31.5767 18.6795 31.5773 18.6799 31.5778 18.6801C31.5781 18.6803 31.5783 18.6804 31.5784 18.6805C31.5787 18.6806 31.5789 18.6807 32.0577 17.8028C32.5365 16.9249 32.5366 16.925 32.5367 16.925C32.5367 16.925 32.5367 16.925 32.5367 16.925C32.5366 16.9249 32.5363 16.9248 32.5359 16.9246C32.5351 16.9242 32.5338 16.9234 32.5318 16.9223C32.5279 16.9202 32.5216 16.9167 32.5131 16.912C32.496 16.9026 32.47 16.8881 32.4355 16.8688C32.3666 16.8301 32.264 16.7721 32.1327 16.6962C31.8699 16.5443 31.4924 16.3213 31.0386 16.0394C30.129 15.4744 28.9217 14.6783 27.7194 13.7493C26.5112 12.8157 25.3402 11.7723 24.4802 10.7169C23.6004 9.63703 23.1582 8.68091 23.1582 7.90332H21.1582ZM32.0576 17.9033C31.683 16.9761 31.6827 16.9763 31.6824 16.9764C31.6823 16.9764 31.6819 16.9766 31.6816 16.9767C31.681 16.977 31.6802 16.9773 31.6793 16.9776C31.6775 16.9784 31.6751 16.9794 31.672 16.9806C31.666 16.9831 31.6576 16.9865 31.647 16.9909C31.6256 16.9997 31.5951 17.0125 31.5561 17.029C31.4781 17.0621 31.3659 17.1104 31.2244 17.1736C30.9416 17.3 30.5408 17.4859 30.0612 17.7273C29.1045 18.2089 27.8221 18.9175 26.5333 19.8223C25.2496 20.7235 23.9247 21.8434 22.9128 23.1569C21.8997 24.4718 21.1581 26.0375 21.1581 27.8028L23.1581 27.8028C23.1581 26.6184 23.654 25.4718 24.4971 24.3775C25.3413 23.2817 26.4912 22.2955 27.6824 21.4592C28.8685 20.6266 30.061 19.9665 30.9605 19.5137C31.4089 19.288 31.7815 19.1152 32.0401 18.9998C32.1692 18.9421 32.2697 18.8988 32.3367 18.8704C32.3702 18.8562 32.3954 18.8457 32.4115 18.839C32.4195 18.8357 32.4253 18.8333 32.4288 18.8319C32.4306 18.8312 32.4317 18.8307 32.4323 18.8305C32.4326 18.8304 32.4327 18.8303 32.4327 18.8303C32.4327 18.8303 32.4326 18.8303 32.4326 18.8304C32.4324 18.8304 32.4323 18.8305 32.0576 17.9033Z" fill="white"/>
</svg>
