<svg xmlns="http://www.w3.org/2000/svg" width="78.482" height="89" viewBox="0 0 78.482 89"><g transform="translate(-39.314 -20)"><g transform="translate(39.314 20)"><g transform="translate(0 0)"><path d="M79.711,108.747c38.816-18.037,39.233-58.546,37.613-70.988a10.354,10.354,0,0,0-3.253-6.263c-7.314-6.769-19.216-9.653-27.208-10.867a55.462,55.462,0,0,0-16.706.008c-7.977,1.219-19.82,4.1-27.117,10.858a10.36,10.36,0,0,0-3.253,6.264c-1.618,12.429-1.2,52.869,37.5,70.934a2.78,2.78,0,0,0,2.429.054" transform="translate(-39.314 -20)" fill="#c8102e"/><path d="M84.483,111.324a3.172,3.172,0,0,1-1.382-.332,60.369,60.369,0,0,1-20.841-15.9,61.031,61.031,0,0,1-10.75-19.321,72.934,72.934,0,0,1-3.533-31.213,10.134,10.134,0,0,1,3.173-6.112c3.734-3.456,11.183-8.033,25.461-10.215a51.963,51.963,0,0,1,15.675-.008c14.337,2.178,21.8,6.762,25.545,10.224A10.135,10.135,0,0,1,121,44.558,72.584,72.584,0,0,1,117.462,75.7a59.791,59.791,0,0,1-31.693,35.34l-.02.009a3.228,3.228,0,0,1-1.266.272m-.008-82.738a51.082,51.082,0,0,0-7.721.587c-14.04,2.146-21.321,6.608-24.958,9.973a9.18,9.18,0,0,0-2.876,5.535,71.919,71.919,0,0,0,3.49,30.78A60.087,60.087,0,0,0,62.991,94.482a59.425,59.425,0,0,0,20.518,15.65,2.108,2.108,0,0,0,1.859.047,58.838,58.838,0,0,0,31.193-34.787,71.565,71.565,0,0,0,3.5-30.711,9.18,9.18,0,0,0-2.875-5.535c-3.643-3.371-10.944-7.839-25.042-9.981a51.029,51.029,0,0,0-7.666-.579" transform="translate(-45.248 -25.49)" fill="#fcf7ed"/><path d="M104.457,201.292a5.474,5.474,0,0,1-1.645-2.75.284.284,0,0,0-.259-.21c-11.5-.657-17.816-2.456-20.9-4.11a.281.281,0,0,0-.393.353c1.089,2.714,2.715,5.47,7.959,9.472,3.372,2.573,15.663,12.194,18.027,19.8.094.292.4.289.4-.041V203.53a.413.413,0,0,0-.2-.356,21.556,21.556,0,0,1-2.977-1.882" transform="translate(-69.465 -145.284)" fill="#fcf7ed"/><path d="M185.758,201.292a5.472,5.472,0,0,0,1.645-2.75.284.284,0,0,1,.259-.21c11.5-.657,17.816-2.456,20.9-4.11a.281.281,0,0,1,.393.353c-1.089,2.714-2.715,5.47-7.959,9.472-3.372,2.573-15.663,12.194-18.027,19.8-.094.292-.4.289-.4-.041V203.53a.413.413,0,0,1,.2-.356,21.537,21.537,0,0,0,2.977-1.882" transform="translate(-142.356 -145.284)" fill="#fcf7ed"/><path d="M172.754,193.94V191.6a.331.331,0,0,0-.165-.287l-2.029-1.172a3.538,3.538,0,0,0-3.536,0l-2.029,1.172a.331.331,0,0,0-.166.287v2.343A3.536,3.536,0,0,0,166.6,197l2.029,1.171a.33.33,0,0,0,.331,0L170.986,197a3.536,3.536,0,0,0,1.768-3.062" transform="translate(-129.59 -142.031)" fill="#fcf7ed"/><path d="M242.9,57.9V89.833a.556.556,0,0,0,.584.522l4.223-.682a.556.556,0,0,0,.584-.522V78.4a.6.6,0,0,1,.69-.592c2.045.309,7.936.449,7.936-8.2,0-8.281-10.374-11.475-13.272-12.205a.574.574,0,0,0-.744.5m6.172,14.959h-.2a.555.555,0,0,1-.584-.522v-6.9a.585.585,0,0,1,.873-.453c.877.466,2.1,1.653,2.1,4.648,0,2.459-1.041,3.223-2.193,3.223" transform="translate(-185.744 -46.885)" fill="#fcf7ed"/><path d="M71.549,64.159a.519.519,0,0,0-.33.471v4.68a.5.5,0,0,0,.683.467l2.664-1.037a.691.691,0,0,1,.909.656v15c0,1.76-1.3,2.3-4.2,2.02a.553.553,0,0,0-.643.594s.53,2.04.812,3.139a.81.81,0,0,0,.554.572c5.248,1.573,8.864.963,8.864-4.165V61.289a.581.581,0,0,0-.8-.486c-1.7.6-7.392,2.872-8.519,3.356" transform="translate(-61.838 -49.321)" fill="#fcf7ed"/><path d="M123.547,48.845a.54.54,0,0,0-.473.514V78.042c0,1.738-.56,2.113-1.525,2.06-1.1-.061-1.487-.314-1.487-2.23V50.208a.575.575,0,0,0-.737-.5c-1.511.359-2.937.751-4.261,1.154a.528.528,0,0,0-.393.494V78.7c0,5.666,1.541,5.779,6.841,6.289,5.556.533,6.878-.044,6.878-5.622V48.8a.563.563,0,0,0-.645-.52c-1.439.141-2.842.333-4.2.563" transform="translate(-93.515 -40.339)" fill="#fcf7ed"/><path d="M182.685,48.61l-2.126,12.827a.388.388,0,0,1-.75-.009L177.94,47.908a.561.561,0,0,0-.533-.455c-1.113-.076-2.23-.118-3.346-.118q-1.207,0-2.393.055a.551.551,0,0,0-.551.522V84.247a.556.556,0,0,0,.584.522l3.367-.02a.556.556,0,0,0,.584-.522V66.05a.3.3,0,0,1,.587-.042l2.382,17.924a.569.569,0,0,0,.577.439l2.087-.17a.568.568,0,0,0,.578-.443l2.215-17.624a.3.3,0,0,1,.587.038l.057,17.295a.556.556,0,0,0,.584.52l3.37-.341a.556.556,0,0,0,.584-.522V49.837a.534.534,0,0,0-.424-.5c-1.754-.441-3.586-.836-5.464-1.157a.582.582,0,0,0-.686.433" transform="translate(-134.112 -39.661)" fill="#fcf7ed"/></g></g></g></svg>