<svg width="243" height="210" viewBox="0 0 243 210" fill="none" xmlns="http://www.w3.org/2000/svg">
  <g clip-path="url(#clip0--logo)">
  <path fill-rule="evenodd" clip-rule="evenodd" d="M121.724 -0.000448227L43.6732 78.145L121.724 156.288L199.764 78.145L121.724 -0.000448227ZM47.6689 78.145L121.724 4.00254L195.766 78.145L121.724 152.285L47.6689 78.145Z" fill="#231F20"></path>
  <path fill-rule="evenodd" clip-rule="evenodd" d="M78.0461 75.2174V76.7308H99.7261V75.214L78.0461 75.2174Z" fill="#231F20"></path>
  <path fill-rule="evenodd" clip-rule="evenodd" d="M78.0459 81.0724H99.7259V79.5533H78.0459V81.0724Z" fill="#231F20"></path>
  <path fill-rule="evenodd" clip-rule="evenodd" d="M143.083 76.7307H164.763V75.2133H143.083V76.7307Z" fill="#231F20"></path>
  <path fill-rule="evenodd" clip-rule="evenodd" d="M143.083 81.0724H164.763V79.5533H143.083V81.0724Z" fill="#231F20"></path>
  <path fill-rule="evenodd" clip-rule="evenodd" d="M119.948 90.305L115.7 84.4255L100.452 50.6855C100.452 50.6855 99.7256 49.307 99.7256 47.3741V45.5823L123.504 84.4255L119.948 90.305Z" fill="#231F20"></path>
  <path fill-rule="evenodd" clip-rule="evenodd" d="M142.385 97.8179C140.688 93.9318 137.598 92.35 132.983 92.4431C133.399 91.2548 133.363 89.5856 132.844 88.2014C131.25 83.9314 127.18 84.5354 123.227 84.6556C122.526 84.6748 121.812 84.6974 121.09 84.6974V86.8736C121.834 86.8736 122.57 86.8516 123.292 86.8279C127.414 86.7065 129.792 86.2865 130.791 88.9567C131.128 89.856 131.264 91.1351 130.643 92.0209C129.921 93.0539 128.392 93.6021 127.201 93.6021L127.632 95.9962C129.113 95.2166 130.99 94.6493 130.99 94.6493C131.381 94.5194 131.638 94.4353 132.02 94.4014C136.276 94.0368 138.942 95.3927 140.375 98.6867C141.276 100.751 140.972 103.428 139.596 105.502C138.327 107.425 136.355 108.528 133.932 108.528C133.184 108.529 132.436 108.529 131.78 108.4L131.341 110.529C132.122 110.691 132.904 110.703 133.844 110.703H134.19C137.111 110.703 139.746 109.24 141.432 106.699C143.224 103.985 143.59 100.584 142.385 97.8179Z" fill="#231F20"></path>
  <path fill-rule="evenodd" clip-rule="evenodd" d="M132.048 110.647L121.229 87.5748L122.087 82.5229L134.703 109.417L132.048 110.647Z" fill="#231F20"></path>
  <path fill-rule="evenodd" clip-rule="evenodd" d="M119.527 86.5281L122.213 92.2715L125.04 92.0282L121.912 86.1606L119.527 86.5281Z" fill="#231F20"></path>
  <path fill-rule="evenodd" clip-rule="evenodd" d="M125.782 93.2739L122.281 92.2504V89.4482L124.924 90.3051L125.782 93.2739Z" fill="#231F20"></path>
  <path fill-rule="evenodd" clip-rule="evenodd" d="M127.096 83.4729L124.407 89.2157L121.585 88.9758L124.707 83.1042L127.096 83.4729Z" fill="#231F20"></path>
  <path fill-rule="evenodd" clip-rule="evenodd" d="M122.868 90.305L127.115 84.4255L142.366 50.6855C142.366 50.6855 143.085 49.307 143.085 47.3741V45.5823L119.312 84.4255L122.868 90.305Z" fill="#231F20"></path>
  <path fill-rule="evenodd" clip-rule="evenodd" d="M100.428 97.8179C102.128 93.9318 105.218 92.35 109.833 92.4431C109.42 91.2548 109.449 89.5856 109.969 88.2014C111.564 83.9314 115.637 84.5354 119.589 84.6556C120.29 84.6748 121.004 84.6974 121.724 84.6974V86.8736C120.983 86.8736 120.244 86.8516 119.522 86.8279C115.4 86.7065 113.024 86.2865 112.025 88.9567C111.685 89.856 111.547 91.1351 112.173 92.0209C112.892 93.0539 114.424 93.6021 115.615 93.6021L115.18 95.9962C113.703 95.2166 111.822 94.6493 111.822 94.6493C111.434 94.5194 111.176 94.4353 110.794 94.4014C106.537 94.0368 103.873 95.3927 102.438 98.6867C101.537 100.751 101.844 103.428 103.215 105.502C104.487 107.425 106.458 108.528 108.884 108.528C109.633 108.529 110.38 108.529 111.033 108.4L111.473 110.529C110.694 110.691 109.909 110.703 108.97 110.703H108.624C105.703 110.703 103.069 109.24 101.385 106.699C99.5946 103.985 99.2264 100.584 100.428 97.8179Z" fill="#231F20"></path>
  <path fill-rule="evenodd" clip-rule="evenodd" d="M110.763 110.647L121.588 87.5748L120.729 82.5229L108.113 109.417L110.763 110.647Z" fill="#231F20"></path>
  <path fill-rule="evenodd" clip-rule="evenodd" d="M123.289 86.5281L120.6 92.2715L117.773 92.0282L120.901 86.1606L123.289 86.5281Z" fill="#231F20"></path>
  <path fill-rule="evenodd" clip-rule="evenodd" d="M117.034 93.2739L120.533 92.2504V89.4482L117.892 90.3051L117.034 93.2739Z" fill="#231F20"></path>
  <path fill-rule="evenodd" clip-rule="evenodd" d="M115.72 83.4729L118.409 89.2157L121.231 88.9758L118.105 83.1042L115.72 83.4729Z" fill="#231F20"></path>
  <path fill-rule="evenodd" clip-rule="evenodd" d="M22.8163 209.593V191.094H26.5391V206.127H36.2038V209.593H22.8163Z" fill="#231F20"></path>
  <mask id="mask0" mask-type="alpha" maskUnits="userSpaceOnUse" x="0" y="0" width="243" height="210">
  <path d="M0 209.73H242.811V6.67572e-06H0V209.73Z" fill="white"></path>
  </mask>
  <g mask="url(#mask0)">
  <path fill-rule="evenodd" clip-rule="evenodd" d="M42.3857 209.594H46.0894V191.094H42.3857V209.594Z" fill="#231F20"></path>
  <path fill-rule="evenodd" clip-rule="evenodd" d="M148.813 206.403L135.239 206.377L135.245 202.909L148.82 202.934L148.813 206.403Z" fill="#231F20"></path>
  <path fill-rule="evenodd" clip-rule="evenodd" d="M67.451 209.593L58.6585 197.529V209.593H54.9537V191.094H58.7589L67.3197 202.717V191.094H71.0194V209.593H67.451Z" fill="#231F20"></path>
  <path fill-rule="evenodd" clip-rule="evenodd" d="M91.3715 200.328C91.3715 197.089 89.4952 194.558 85.946 194.558H82.7701V206.127H85.9178C89.357 206.127 91.3715 203.489 91.3715 200.328ZM79.0642 209.593V191.094H85.9178C91.3715 191.094 95.1501 194.784 95.1501 200.328C95.1501 205.929 91.3715 209.593 85.946 209.593H79.0642Z" fill="#231F20"></path>
  <path fill-rule="evenodd" clip-rule="evenodd" d="M193.218 204.055C193.221 202.891 192.066 201.939 190.632 201.937L184.638 201.924L184.63 206.142H190.626C192.01 206.144 193.217 205.384 193.218 204.055ZM192.891 196.539C192.893 195.396 191.739 194.576 190.496 194.574H184.651L184.645 198.473H190.487C191.732 198.474 192.888 197.726 192.891 196.539ZM180.924 209.601V191.104L191.304 191.124C194.616 191.131 196.678 193.377 196.674 195.853C196.67 198.146 195.309 199.725 193.667 200.085C195.544 200.397 197.002 202.317 196.998 204.615C196.993 207.424 194.894 209.608 191.561 209.601H180.924Z" fill="#231F20"></path>
  <path fill-rule="evenodd" clip-rule="evenodd" d="M123.511 204.055C123.514 202.891 122.357 201.939 120.925 201.937L114.929 201.924L114.923 206.142H120.915C122.301 206.144 123.508 205.384 123.511 204.055ZM123.181 196.539C123.184 195.396 122.03 194.576 120.786 194.574H114.943L114.936 198.473H120.78C122.022 198.474 123.179 197.726 123.181 196.539ZM111.214 209.601V191.104L121.596 191.124C124.907 191.131 126.968 193.377 126.964 195.853C126.96 198.146 125.6 199.725 123.959 200.085C125.834 200.397 127.295 202.317 127.29 204.615C127.283 207.424 125.184 209.608 121.852 209.601H111.214Z" fill="#231F20"></path>
  <path fill-rule="evenodd" clip-rule="evenodd" d="M12.2966 204.055C12.2988 202.891 11.1447 201.939 9.70929 201.937L3.71378 201.924L3.70815 206.142H9.70309C11.0861 206.144 12.2943 205.384 12.2966 204.055ZM11.9679 196.539C11.9701 195.396 10.816 194.576 9.57397 194.574H3.72844L3.72111 198.473H9.56608C10.8098 198.474 11.9668 197.726 11.9679 196.539ZM0 209.601V191.104L10.3813 191.124C13.6914 191.131 15.7538 193.377 15.7493 195.853C15.7454 198.146 14.3855 199.725 12.7448 200.085C14.62 200.397 16.0797 202.317 16.0752 204.615C16.069 207.424 13.9694 209.608 10.6379 209.601H0Z" fill="#231F20"></path>
  <path fill-rule="evenodd" clip-rule="evenodd" d="M238.919 197.157C238.922 195.64 237.806 194.682 236.345 194.679L230.29 194.667L230.281 199.662L236.336 199.674C237.798 199.676 238.916 198.738 238.919 197.157ZM238.538 209.72L235.132 203.127H230.263V209.703L226.558 209.695L226.592 191.196L236.874 191.217C240.502 191.226 242.736 193.752 242.729 197.193C242.723 200.437 240.76 202.21 238.888 202.675L242.811 209.729L238.538 209.72Z" fill="#231F20"></path>
  <path fill-rule="evenodd" clip-rule="evenodd" d="M169.205 197.157C169.207 195.64 168.092 194.682 166.631 194.679L160.574 194.667L160.566 199.662L166.62 199.674C168.083 199.676 169.201 198.738 169.205 197.157ZM168.822 209.72L165.415 203.127H160.547V209.703L156.844 209.695L156.877 191.196L167.16 191.217C170.786 191.226 173.022 193.752 173.016 197.193C173.01 200.437 171.045 202.21 169.171 202.675L173.094 209.729L168.822 209.72Z" fill="#231F20"></path>
  <path fill-rule="evenodd" clip-rule="evenodd" d="M204.826 209.65V191.15L218.422 191.179L218.416 194.622H208.551L208.546 198.53H218.232L218.227 201.993L208.539 201.973L208.531 206.213H218.396L218.389 209.679L204.826 209.65Z" fill="#231F20"></path>
  <path fill-rule="evenodd" clip-rule="evenodd" d="M132.197 209.501L139.99 191.019L143.694 191.025L135.897 209.51" fill="#231F20"></path>
  <path fill-rule="evenodd" clip-rule="evenodd" d="M147.783 209.534L140.055 191.019L143.757 191.026L151.486 209.541" fill="#231F20"></path>
  </g>
  </g>
  <defs>
  <clipPath id="clip0--logo">
  <rect width="243" height="210" fill="white"></rect>
  </clipPath>
  </defs>
  </svg>