<svg xmlns="http://www.w3.org/2000/svg" xmlns:xlink="http://www.w3.org/1999/xlink" width="1000" zoomAndPan="magnify" viewBox="0 0 750 187.499995" height="250" preserveAspectRatio="xMidYMid meet" version="1.0"><defs><g/><clipPath id="aab3fa8fd6"><path d="M 0.996094 0 L 749 0 L 749 187 L 0.996094 187 Z M 0.996094 0 " clip-rule="nonzero"/></clipPath><clipPath id="7af1b92b89"><path d="M 37.648438 3.78125 L 217.917969 3.78125 L 217.917969 184.050781 L 37.648438 184.050781 Z M 37.648438 3.78125 " clip-rule="nonzero"/></clipPath><clipPath id="9bb5883f4a"><path d="M 87 51 L 170 51 L 170 139.277344 L 87 139.277344 Z M 87 51 " clip-rule="nonzero"/></clipPath><clipPath id="63e318a7f6"><path d="M 690 37.375 L 714.226562 37.375 L 714.226562 65 L 690 65 Z M 690 37.375 " clip-rule="nonzero"/></clipPath><clipPath id="19e10712ee"><path d="M 676.078125 52 L 696 52 L 696 74.777344 L 676.078125 74.777344 Z M 676.078125 52 " clip-rule="nonzero"/></clipPath><clipPath id="cf43fd561c"><path d="M 695.046875 124.140625 L 707 124.140625 L 707 130.125 L 695.046875 130.125 Z M 695.046875 124.140625 " clip-rule="nonzero"/></clipPath></defs><g clip-path="url(#aab3fa8fd6)"><path fill="#ffffff" d="M 0.996094 0 L 749.003906 0 L 749.003906 194.480469 L 0.996094 194.480469 Z M 0.996094 0 " fill-opacity="1" fill-rule="nonzero"/><path fill="#ffffff" d="M 0.996094 0 L 749.003906 0 L 749.003906 187 L 0.996094 187 Z M 0.996094 0 " fill-opacity="1" fill-rule="nonzero"/><path fill="#ffffff" d="M 0.996094 0 L 749.003906 0 L 749.003906 187 L 0.996094 187 Z M 0.996094 0 " fill-opacity="1" fill-rule="nonzero"/></g><g clip-path="url(#7af1b92b89)"><path fill="#38b6ff" d="M 127.78125 3.78125 C 78.003906 3.78125 37.648438 44.136719 37.648438 93.914062 C 37.648438 143.695312 78.003906 184.046875 127.78125 184.046875 C 177.5625 184.046875 217.917969 143.695312 217.917969 93.914062 C 217.917969 44.136719 177.5625 3.78125 127.78125 3.78125 Z M 127.78125 154.003906 C 94.597656 154.003906 67.691406 127.097656 67.691406 93.914062 C 67.691406 60.730469 94.597656 33.824219 127.78125 33.824219 C 160.964844 33.824219 187.871094 60.730469 187.871094 93.914062 C 187.871094 127.097656 160.964844 154.003906 127.78125 154.003906 Z M 127.78125 154.003906 " fill-opacity="1" fill-rule="nonzero"/></g><g clip-path="url(#9bb5883f4a)"><path fill="#38b6ff" d="M 158.527344 53.203125 C 152.25 49.445312 144.894531 52.191406 138.40625 54.609375 C 134.53125 56.054688 130.84375 57.417969 127.738281 57.417969 C 124.628906 57.417969 120.980469 55.972656 117.085938 54.441406 C 110.371094 51.800781 102.789062 48.824219 96.738281 53.328125 C 83.144531 63.492188 86.855469 97.390625 93.816406 118.214844 C 96.449219 126.066406 101.960938 139.222656 109.503906 139.222656 C 116.714844 139.222656 117.8125 131.167969 118.890625 123.359375 C 120.214844 113.730469 121.539062 107.410156 127.738281 107.410156 C 133.933594 107.410156 135.257812 113.730469 136.585938 123.359375 C 137.660156 131.167969 138.757812 139.222656 145.96875 139.222656 C 154.363281 139.222656 161.925781 122.757812 165.863281 108.648438 C 171.457031 88.445312 172.90625 61.816406 158.527344 53.203125 Z M 158.527344 53.203125 " fill-opacity="1" fill-rule="nonzero"/></g><g fill="#bebebe" fill-opacity="1"><g transform="translate(222.096824, 130.163726)"><g><path d="M 76.203125 -53.359375 L 98.609375 -53.359375 L 83.34375 0 L 56.984375 0 L 49.09375 -29.234375 L 41.40625 0 L 15.046875 0 L -0.21875 -53.359375 L 22.203125 -53.359375 L 29.671875 -15.46875 L 38.625 -53.359375 L 59.765625 -53.359375 L 68.734375 -15.46875 Z M 76.203125 -53.359375 "/></g></g></g><g fill="#bebebe" fill-opacity="1"><g transform="translate(312.487426, 130.163726)"><g><path d="M 32.546875 1.0625 C 26.429688 1.0625 21.148438 -0.0195312 16.703125 -2.1875 C 12.253906 -4.351562 8.835938 -7.5 6.453125 -11.625 C 4.066406 -15.757812 2.875 -20.78125 2.875 -26.6875 C 2.875 -32.582031 4.082031 -37.59375 6.5 -41.71875 C 8.925781 -45.851562 12.304688 -49.003906 16.640625 -51.171875 C 20.984375 -53.335938 26.003906 -54.421875 31.703125 -54.421875 C 37.535156 -54.421875 42.492188 -53.335938 46.578125 -51.171875 C 50.671875 -49.003906 53.800781 -46 55.96875 -42.15625 C 58.144531 -38.3125 59.234375 -33.828125 59.234375 -28.703125 C 59.234375 -27.492188 59.175781 -26.285156 59.0625 -25.078125 C 58.957031 -23.867188 58.835938 -22.835938 58.703125 -21.984375 L 16.75 -21.984375 L 16.75 -31.375 L 49.296875 -31.375 L 39.0625 -27.421875 C 39.0625 -31.484375 38.507812 -34.5625 37.40625 -36.65625 C 36.300781 -38.757812 34.398438 -39.8125 31.703125 -39.8125 C 29.847656 -39.8125 28.296875 -39.382812 27.046875 -38.53125 C 25.804688 -37.675781 24.882812 -36.25 24.28125 -34.25 C 23.675781 -32.257812 23.375 -29.628906 23.375 -26.359375 C 23.375 -23.085938 23.742188 -20.507812 24.484375 -18.625 C 25.234375 -16.738281 26.285156 -15.4375 27.640625 -14.71875 C 28.992188 -14.007812 30.703125 -13.65625 32.765625 -13.65625 C 35.035156 -13.65625 36.8125 -14.117188 38.09375 -15.046875 C 39.375 -15.972656 40.300781 -17.253906 40.875 -18.890625 L 58.15625 -13.765625 C 57.300781 -10.492188 55.578125 -7.753906 52.984375 -5.546875 C 50.390625 -3.335938 47.3125 -1.679688 43.75 -0.578125 C 40.195312 0.515625 36.460938 1.0625 32.546875 1.0625 Z M 32.546875 1.0625 "/></g></g></g><g fill="#38b6ff" fill-opacity="1"><g transform="translate(366.380027, 130.163726)"><g><path d="M 76.203125 -53.359375 L 98.609375 -53.359375 L 83.34375 0 L 56.984375 0 L 49.09375 -29.234375 L 41.40625 0 L 15.046875 0 L -0.21875 -53.359375 L 22.203125 -53.359375 L 29.671875 -15.46875 L 38.625 -53.359375 L 59.765625 -53.359375 L 68.734375 -15.46875 Z M 76.203125 -53.359375 "/></g></g></g><g fill="#38b6ff" fill-opacity="1"><g transform="translate(456.77063, 130.163726)"><g><path d="M 5.234375 0 L 5.234375 -75.34375 L 26.78125 -75.34375 L 26.78125 -43 C 28.28125 -46.707031 30.46875 -49.535156 33.34375 -51.484375 C 36.226562 -53.441406 39.628906 -54.421875 43.546875 -54.421875 C 47.171875 -54.421875 50.28125 -53.726562 52.875 -52.34375 C 55.476562 -50.957031 57.488281 -48.894531 58.90625 -46.15625 C 60.332031 -43.414062 61.046875 -40.054688 61.046875 -36.078125 L 61.046875 0 L 39.484375 0 L 39.484375 -30.3125 C 39.484375 -33.363281 39.003906 -35.457031 38.046875 -36.59375 C 37.085938 -37.738281 35.753906 -38.3125 34.046875 -38.3125 C 32.617188 -38.3125 31.351562 -37.953125 30.25 -37.234375 C 29.144531 -36.523438 28.289062 -35.40625 27.6875 -33.875 C 27.082031 -32.351562 26.78125 -30.414062 26.78125 -28.0625 L 26.78125 0 Z M 5.234375 0 "/></g></g></g><g fill="#38b6ff" fill-opacity="1"><g transform="translate(514.932005, 130.163726)"><g><path d="M 16.015625 -58.0625 C 11.742188 -58.0625 8.664062 -58.804688 6.78125 -60.296875 C 4.894531 -61.785156 3.953125 -64.203125 3.953125 -67.546875 C 3.953125 -70.960938 4.894531 -73.414062 6.78125 -74.90625 C 8.664062 -76.40625 11.742188 -77.15625 16.015625 -77.15625 C 20.273438 -77.15625 23.347656 -76.40625 25.234375 -74.90625 C 27.117188 -73.414062 28.0625 -70.960938 28.0625 -67.546875 C 28.0625 -64.203125 27.117188 -61.785156 25.234375 -60.296875 C 23.347656 -58.804688 20.273438 -58.0625 16.015625 -58.0625 Z M 26.78125 -53.359375 L 26.78125 0 L 5.234375 0 L 5.234375 -53.359375 Z M 26.78125 -53.359375 "/></g></g></g><g fill="#38b6ff" fill-opacity="1"><g transform="translate(538.943207, 130.163726)"><g><path d="M 31.15625 -70.96875 L 31.15625 -20.484375 C 31.15625 -17.992188 31.707031 -16.210938 32.8125 -15.140625 C 33.914062 -14.078125 35.570312 -13.546875 37.78125 -13.546875 C 39.34375 -13.546875 40.691406 -13.6875 41.828125 -13.96875 C 42.972656 -14.257812 44.039062 -14.726562 45.03125 -15.375 L 46.421875 -2.78125 C 44.710938 -1.5625 42.398438 -0.617188 39.484375 0.046875 C 36.566406 0.722656 33.722656 1.0625 30.953125 1.0625 C 26.398438 1.0625 22.539062 0.457031 19.375 -0.75 C 16.207031 -1.957031 13.785156 -3.875 12.109375 -6.5 C 10.441406 -9.132812 9.609375 -12.660156 9.609375 -17.078125 L 9.609375 -64.984375 Z M 45.671875 -53.359375 L 45.671875 -38.53125 L 0.859375 -38.53125 L 0.859375 -53.359375 Z M 45.671875 -53.359375 "/></g></g></g><g fill="#38b6ff" fill-opacity="1"><g transform="translate(578.215264, 130.163726)"><g><path d="M 32.546875 1.0625 C 26.429688 1.0625 21.148438 -0.0195312 16.703125 -2.1875 C 12.253906 -4.351562 8.835938 -7.5 6.453125 -11.625 C 4.066406 -15.757812 2.875 -20.78125 2.875 -26.6875 C 2.875 -32.582031 4.082031 -37.59375 6.5 -41.71875 C 8.925781 -45.851562 12.304688 -49.003906 16.640625 -51.171875 C 20.984375 -53.335938 26.003906 -54.421875 31.703125 -54.421875 C 37.535156 -54.421875 42.492188 -53.335938 46.578125 -51.171875 C 50.671875 -49.003906 53.800781 -46 55.96875 -42.15625 C 58.144531 -38.3125 59.234375 -33.828125 59.234375 -28.703125 C 59.234375 -27.492188 59.175781 -26.285156 59.0625 -25.078125 C 58.957031 -23.867188 58.835938 -22.835938 58.703125 -21.984375 L 16.75 -21.984375 L 16.75 -31.375 L 49.296875 -31.375 L 39.0625 -27.421875 C 39.0625 -31.484375 38.507812 -34.5625 37.40625 -36.65625 C 36.300781 -38.757812 34.398438 -39.8125 31.703125 -39.8125 C 29.847656 -39.8125 28.296875 -39.382812 27.046875 -38.53125 C 25.804688 -37.675781 24.882812 -36.25 24.28125 -34.25 C 23.675781 -32.257812 23.375 -29.628906 23.375 -26.359375 C 23.375 -23.085938 23.742188 -20.507812 24.484375 -18.625 C 25.234375 -16.738281 26.285156 -15.4375 27.640625 -14.71875 C 28.992188 -14.007812 30.703125 -13.65625 32.765625 -13.65625 C 35.035156 -13.65625 36.8125 -14.117188 38.09375 -15.046875 C 39.375 -15.972656 40.300781 -17.253906 40.875 -18.890625 L 58.15625 -13.765625 C 57.300781 -10.492188 55.578125 -7.753906 52.984375 -5.546875 C 50.390625 -3.335938 47.3125 -1.679688 43.75 -0.578125 C 40.195312 0.515625 36.460938 1.0625 32.546875 1.0625 Z M 32.546875 1.0625 "/></g></g></g><g fill="#38b6ff" fill-opacity="1"><g transform="translate(632.10787, 130.163726)"><g><path d="M 5.234375 0 L 5.234375 -53.359375 L 24.65625 -53.359375 L 25.609375 -32.765625 L 23.375 -35.109375 C 23.9375 -39.234375 25.109375 -42.734375 26.890625 -45.609375 C 28.671875 -48.492188 30.960938 -50.679688 33.765625 -52.171875 C 36.578125 -53.671875 39.835938 -54.421875 43.546875 -54.421875 C 47.171875 -54.421875 50.28125 -53.726562 52.875 -52.34375 C 55.476562 -50.957031 57.488281 -48.894531 58.90625 -46.15625 C 60.332031 -43.414062 61.046875 -40.054688 61.046875 -36.078125 L 61.046875 0 L 39.484375 0 L 39.484375 -30.515625 C 39.484375 -33.503906 39.003906 -35.550781 38.046875 -36.65625 C 37.085938 -37.757812 35.71875 -38.3125 33.9375 -38.3125 C 32.582031 -38.3125 31.351562 -37.972656 30.25 -37.296875 C 29.144531 -36.617188 28.289062 -35.53125 27.6875 -34.03125 C 27.082031 -32.539062 26.78125 -30.585938 26.78125 -28.171875 L 26.78125 0 Z M 5.234375 0 "/></g></g></g><g clip-path="url(#63e318a7f6)"><path fill="#38b6ff" d="M 702.949219 40.097656 L 702.613281 37.378906 L 702.339844 39.863281 C 701.722656 45.40625 697.457031 49.855469 691.921875 50.730469 L 690.449219 50.964844 L 691.003906 51.011719 C 696.925781 51.507812 701.671875 56.105469 702.328125 61.988281 L 702.613281 64.570312 L 702.867188 62.0625 C 703.46875 56.136719 708.21875 51.476562 714.175781 50.964844 L 713.207031 50.800781 C 707.785156 49.878906 703.617188 45.527344 702.949219 40.097656 " fill-opacity="1" fill-rule="nonzero"/></g><g clip-path="url(#19e10712ee)"><path fill="#38b6ff" d="M 686.308594 74.777344 L 686.519531 72.675781 C 687.023438 67.714844 691.003906 63.808594 695.992188 63.378906 L 695.183594 63.242188 C 690.640625 62.472656 687.148438 58.824219 686.585938 54.273438 L 686.308594 52 L 686.074219 54.078125 C 685.558594 58.722656 681.988281 62.453125 677.351562 63.183594 L 676.117188 63.378906 L 676.578125 63.417969 C 681.542969 63.832031 685.519531 67.6875 686.066406 72.617188 L 686.308594 74.777344 " fill-opacity="1" fill-rule="nonzero"/></g><g clip-path="url(#cf43fd561c)"><path fill="#38b6ff" d="M 695.019531 124.574219 C 695.019531 124.46875 695.058594 124.378906 695.140625 124.304688 C 695.222656 124.230469 695.320312 124.191406 695.4375 124.191406 L 700.445312 124.191406 C 700.5625 124.191406 700.660156 124.230469 700.742188 124.304688 C 700.824219 124.378906 700.863281 124.46875 700.863281 124.574219 C 700.863281 124.683594 700.824219 124.773438 700.742188 124.847656 C 700.660156 124.921875 700.5625 124.960938 700.445312 124.960938 L 698.359375 124.960938 L 698.359375 129.6875 C 698.359375 129.792969 698.316406 129.882812 698.238281 129.957031 C 698.15625 130.03125 698.058594 130.070312 697.941406 130.070312 C 697.828125 130.070312 697.726562 130.03125 697.644531 129.957031 C 697.566406 129.882812 697.523438 129.792969 697.523438 129.6875 L 697.523438 124.960938 L 695.4375 124.960938 C 695.320312 124.960938 695.222656 124.921875 695.140625 124.847656 C 695.058594 124.773438 695.019531 124.683594 695.019531 124.574219 Z M 704.34375 126.519531 L 702.441406 124.335938 C 702.320312 124.195312 702.164062 124.152344 701.976562 124.214844 C 701.792969 124.273438 701.699219 124.394531 701.699219 124.574219 L 701.699219 129.6875 C 701.699219 129.792969 701.738281 129.882812 701.820312 129.957031 C 701.902344 130.03125 702 130.070312 702.117188 130.070312 C 702.230469 130.070312 702.332031 130.03125 702.410156 129.957031 C 702.492188 129.882812 702.535156 129.792969 702.535156 129.6875 L 702.535156 125.667969 L 704.015625 127.371094 C 704.101562 127.460938 704.210938 127.507812 704.34375 127.507812 C 704.472656 127.507812 704.582031 127.460938 704.667969 127.371094 L 706.152344 125.667969 L 706.152344 129.6875 C 706.152344 129.792969 706.191406 129.882812 706.273438 129.957031 C 706.355469 130.03125 706.453125 130.070312 706.570312 130.070312 C 706.683594 130.070312 706.785156 130.03125 706.863281 129.957031 C 706.945312 129.882812 706.988281 129.792969 706.988281 129.6875 L 706.988281 124.574219 C 706.988281 124.394531 706.894531 124.273438 706.707031 124.214844 C 706.523438 124.152344 706.367188 124.195312 706.242188 124.335938 Z M 704.34375 126.519531 " fill-opacity="1" fill-rule="nonzero"/></g></svg>